<?xml version="1.0" standalone="no"?>
<!DOCTYPE svg PUBLIC "-//W3C//DTD SVG 20010904//EN"
 "http://www.w3.org/TR/2001/REC-SVG-20010904/DTD/svg10.dtd">
<svg version="1.0" xmlns="http://www.w3.org/2000/svg"
 width="548.000000pt" height="287.000000pt" viewBox="0 0 548.000000 287.000000"
 preserveAspectRatio="xMidYMid meet">

<g transform="translate(0.000000,287.000000) scale(0.100000,-0.100000)"
fill="#000000" stroke="none">
<path d="M1030 1967 l-355 -123 0 -504 0 -504 363 -124 362 -125 360 124 360
124 0 505 0 505 -357 123 c-197 67 -362 122 -368 122 -5 -1 -170 -56 -365
-123z m718 -32 c184 -63 336 -115 338 -115 2 0 4 -215 4 -479 l0 -479 -262
-90 c-145 -49 -300 -103 -346 -118 l-83 -29 -137 47 c-75 26 -230 80 -344 119
l-208 71 0 478 0 478 258 87 c141 49 291 101 332 116 41 15 84 28 94 28 11 1
170 -51 354 -114z"/>
<path d="M1230 1530 c0 -5 8 -10 18 -10 38 0 42 -18 42 -198 l0 -174 -30 -11
c-16 -6 -30 -15 -30 -19 0 -4 74 -8 164 -8 l164 0 6 31 c10 51 7 79 -8 79 -8
0 -17 -13 -21 -30 -9 -41 -40 -60 -98 -60 -81 0 -87 7 -87 105 l0 85 65 0 c37
0 65 4 65 10 0 6 -28 10 -65 10 l-65 0 0 90 0 90 64 0 c74 0 90 -11 100 -65 4
-21 13 -35 21 -35 12 0 15 14 15 60 l0 60 -160 0 c-100 0 -160 -4 -160 -10z"/>
<path d="M2240 1310 l0 -230 120 0 c100 0 120 3 120 15 0 12 -18 15 -105 15
l-105 0 0 90 0 90 90 0 c83 0 90 1 90 20 0 19 -7 20 -90 20 l-90 0 0 90 0 90
105 0 c87 0 105 3 105 15 0 13 -20 15 -120 15 l-120 0 0 -230z"/>
<path d="M3680 1310 c0 -198 2 -230 15 -230 12 0 15 18 15 105 l0 105 90 0
c83 0 90 1 90 20 0 19 -7 20 -90 20 l-90 0 0 90 0 90 105 0 c87 0 105 3 105
15 0 13 -20 15 -120 15 l-120 0 0 -230z"/>
<path d="M3480 1455 l0 -55 -35 0 c-28 0 -35 -4 -35 -20 0 -16 7 -20 35 -20
l35 0 0 -125 c0 -104 2 -125 15 -125 8 0 15 -7 15 -15 0 -12 13 -15 55 -15 42
0 55 3 55 15 0 12 -13 15 -55 15 l-55 0 0 124 0 125 52 3 c41 2 54 7 56 21 3
14 -5 17 -52 17 l-56 0 0 55 c0 42 -3 55 -15 55 -12 0 -15 -13 -15 -55z"/>
<path d="M4070 1296 c0 -210 1 -216 20 -216 20 0 20 5 18 212 -3 193 -5 213
-20 216 -17 3 -18 -12 -18 -212z"/>
<path d="M2520 1345 c0 -48 2 -55 20 -55 16 0 20 -7 20 -35 0 -28 4 -35 20
-35 16 0 20 -7 20 -35 0 -24 5 -35 15 -35 10 0 15 -11 15 -35 0 -28 4 -35 20
-35 16 0 20 7 20 35 0 24 5 35 15 35 10 0 15 11 15 35 0 28 4 35 20 35 16 0
20 7 20 35 0 24 5 35 15 35 12 0 15 13 15 55 0 42 -3 55 -15 55 -12 0 -15 -13
-15 -55 0 -48 -2 -55 -20 -55 -16 0 -20 -7 -20 -35 0 -24 -5 -35 -15 -35 -10
0 -15 -11 -15 -35 0 -28 -4 -35 -20 -35 -16 0 -20 7 -20 34 0 25 -5 35 -20 39
-15 4 -20 14 -20 36 0 21 -5 31 -15 31 -12 0 -15 13 -15 55 0 48 -2 55 -20 55
-18 0 -20 -7 -20 -55z"/>
<path d="M2880 1385 c0 -8 -7 -15 -15 -15 -8 0 -15 -9 -15 -20 0 -13 -7 -20
-20 -20 -19 0 -20 -7 -20 -90 0 -83 1 -90 20 -90 13 0 20 -7 20 -20 0 -11 7
-20 15 -20 8 0 15 -7 15 -15 0 -12 13 -15 55 -15 42 0 55 3 55 15 0 8 7 15 15
15 8 0 15 9 15 20 0 11 -7 20 -15 20 -8 0 -15 -9 -15 -20 0 -18 -7 -20 -55
-20 -48 0 -55 2 -55 20 0 11 -7 20 -15 20 -10 0 -15 11 -15 35 l0 35 105 0
105 0 0 55 c0 42 -3 55 -15 55 -10 0 -15 -11 -15 -35 l0 -35 -90 0 -90 0 0 35
c0 24 5 35 15 35 8 0 15 7 15 15 0 12 13 15 55 15 42 0 55 -3 55 -15 0 -8 7
-15 15 -15 8 0 15 9 15 20 0 11 -7 20 -15 20 -8 0 -15 7 -15 15 0 12 -13 15
-55 15 -42 0 -55 -3 -55 -15z"/>
<path d="M3100 1240 c0 -153 1 -160 20 -160 19 0 20 7 20 125 0 104 2 125 15
125 8 0 15 7 15 15 0 12 13 15 55 15 42 0 55 -3 55 -15 0 -8 7 -15 15 -15 8 0
15 9 15 20 0 11 -7 20 -15 20 -8 0 -15 7 -15 15 0 11 -13 15 -54 15 -46 0 -54
-3 -59 -21 -6 -23 -27 -17 -27 7 0 8 -9 14 -20 14 -19 0 -20 -7 -20 -160z"/>
<path d="M4330 1385 c0 -8 -9 -15 -20 -15 -13 0 -20 -7 -20 -19 0 -10 -9 -21
-21 -24 -18 -5 -20 -12 -18 -88 2 -70 4 -82 20 -86 11 -3 19 -14 19 -24 0 -12
7 -19 20 -19 11 0 20 -7 20 -15 0 -11 12 -15 50 -15 38 0 50 4 50 15 0 8 9 15
20 15 13 0 20 7 20 20 0 11 7 20 15 20 12 0 15 17 15 90 0 70 -3 90 -14 90 -7
0 -16 9 -19 20 -3 11 -12 20 -21 20 -9 0 -16 7 -16 15 0 11 -12 15 -50 15 -38
0 -50 -4 -50 -15z m104 -40 c3 -8 12 -15 21 -15 12 0 15 -16 15 -90 0 -83 -1
-90 -20 -90 -13 0 -20 -7 -20 -20 0 -17 -7 -20 -51 -20 -42 0 -52 3 -56 20 -3
11 -12 20 -19 20 -11 0 -14 20 -14 90 0 73 3 90 15 90 8 0 15 7 15 15 0 11 13
15 54 15 39 0 55 -4 60 -15z"/>
<path d="M4540 1294 c0 -97 2 -106 20 -111 17 -4 20 -14 20 -54 0 -37 4 -49
15 -49 11 0 15 12 15 49 0 40 3 50 20 54 17 4 20 14 20 56 0 42 3 51 18 51 14
0 16 -8 13 -51 -3 -44 -1 -51 18 -56 18 -4 21 -13 21 -54 0 -37 4 -49 15 -49
11 0 15 12 15 49 0 40 3 50 20 54 18 5 20 14 20 111 0 88 -3 106 -15 106 -12
0 -15 -18 -15 -105 0 -98 -1 -105 -20 -105 -17 0 -20 7 -20 49 0 40 -3 50 -20
54 -17 4 -20 14 -20 56 0 39 -4 51 -15 51 -11 0 -15 -12 -15 -51 0 -42 -3 -52
-20 -56 -15 -4 -20 -15 -22 -57 -5 -93 -23 -55 -26 57 -2 99 -4 107 -22 107
-19 0 -20 -7 -20 -106z"/>
<path d="M3320 1205 c0 -104 2 -125 15 -125 13 0 15 21 15 125 0 104 -2 125
-15 125 -13 0 -15 -21 -15 -125z"/>
<path d="M3030 1170 c0 -11 7 -20 15 -20 8 0 15 9 15 20 0 11 -7 20 -15 20 -8
0 -15 -9 -15 -20z"/>
</g>
</svg>
